# MagicaVoxel @ Ephtracy

# group
o 

# material
mtllib player.mtl
usemtl palette

# normals
vn -1 0 0
vn 1 0 0
vn 0 0 1
vn 0 0 -1
vn 0 -1 0
vn 0 1 0

# texcoords
vt 0.408203 0.5
vt 0.412109 0.5
vt 0.509766 0.5
vt 0.513672 0.5
vt 0.880859 0.5
vt 0.943359 0.5
vt 0.947266 0.5

# verts
v -1.6 0.6 5.3
v -1.6 0.6 5
v -1.6 1.3 5.3
v -1.6 1.3 5
v -1.6 1.4 5.3
v -1.6 1.4 5.2
v -1.6 1.4 5.1
v -1.6 1.4 5
v -1.6 1.5 5.2
v -1.6 1.5 5.1
v -1.5 1.4 5.3
v -1.5 1.4 5.2
v -1.5 1.4 5.1
v -1.5 1.4 5
v -1.5 1.5 5.3
v -1.5 1.5 5.2
v -1.5 1.5 5.1
v -1.5 1.5 5
v -1.5 1.6 5.2
v -1.5 1.6 5.1
v -1.3 0 5.4
v -1.3 0 5
v -1.3 0.1 5.4
v -1.3 0.1 5.3
v -1.3 0.2 5.3
v -1.3 0.2 5
v -1.3 0.6 5.2
v -1.3 0.6 5
v -1.3 0.7 5.3
v -1.3 0.7 5.2
v -1.3 1.5 5.3
v -1.3 1.5 5.2
v -1.3 1.5 5.1
v -1.3 1.5 5
v -1.3 1.6 5.3
v -1.3 1.6 5.2
v -1.3 1.6 5.1
v -1.3 1.6 5
v -1.2 1.6 5.4
v -1.2 1.6 5.3
v -1.2 1.6 5
v -1.2 1.6 4.9
v -1.2 1.7 5.1
v -1.2 1.7 5
v -1.2 1.8 5.2
v -1.2 1.8 5.1
v -1.2 1.9 5.3
v -1.2 1.9 5.2
v -1.2 2 5.4
v -1.2 2 5.3
v -1.2 2.1 5.4
v -1.2 2.1 4.9
v -0.9 0 5.4
v -0.9 0 5
v -0.9 0.1 5.4
v -0.9 0.1 5.3
v -0.9 0.2 5.3
v -0.9 0.2 5
v -0.9 0.7 5.3
v -0.9 0.7 5
v -0.5 0.6 5.3
v -0.5 0.6 5.2
v -0.5 0.7 5.3
v -0.5 0.7 5.2
v -1.4 0.6 5.3
v -1.4 0.6 5.2
v -1.4 0.7 5.3
v -1.4 0.7 5.2
v -1 0 5.4
v -1 0 5
v -1 0.1 5.4
v -1 0.1 5.3
v -1 0.2 5.3
v -1 0.2 5
v -1 0.7 5.3
v -1 0.7 5
v -0.7 1.6 5.4
v -0.7 1.6 5.3
v -0.7 1.6 5
v -0.7 1.6 4.9
v -0.7 1.7 5.1
v -0.7 1.7 5
v -0.7 1.8 5.2
v -0.7 1.8 5.1
v -0.7 1.9 5.3
v -0.7 1.9 5.2
v -0.7 2 5.4
v -0.7 2 5.3
v -0.7 2.1 5.4
v -0.7 2.1 4.9
v -0.6 0 5.4
v -0.6 0 5
v -0.6 0.1 5.4
v -0.6 0.1 5.3
v -0.6 0.2 5.3
v -0.6 0.2 5
v -0.6 0.6 5.2
v -0.6 0.6 5
v -0.6 0.7 5.3
v -0.6 0.7 5.2
v -0.6 1.5 5.3
v -0.6 1.5 5.2
v -0.6 1.5 5.1
v -0.6 1.5 5
v -0.6 1.6 5.3
v -0.6 1.6 5.2
v -0.6 1.6 5.1
v -0.6 1.6 5
v -0.4 1.4 5.3
v -0.4 1.4 5.2
v -0.4 1.4 5.1
v -0.4 1.4 5
v -0.4 1.5 5.3
v -0.4 1.5 5.2
v -0.4 1.5 5.1
v -0.4 1.5 5
v -0.4 1.6 5.2
v -0.4 1.6 5.1
v -0.3 0.6 5.3
v -0.3 0.6 5
v -0.3 1.3 5.3
v -0.3 1.3 5
v -0.3 1.4 5.3
v -0.3 1.4 5.2
v -0.3 1.4 5.1
v -0.3 1.4 5
v -0.3 1.5 5.2
v -0.3 1.5 5.1
v -1.3 0 5.4
v -1.3 0.1 5.4
v -1.2 1.6 5.4
v -1.2 2 5.4
v -1.2 2.1 5.4
v -1.1 1.6 5.4
v -1.1 1.7 5.4
v -1.1 1.8 5.4
v -1.1 1.9 5.4
v -1 0 5.4
v -1 0.1 5.4
v -1 1.8 5.4
v -1 1.9 5.4
v -0.9 0 5.4
v -0.9 0.1 5.4
v -0.9 1.8 5.4
v -0.9 1.9 5.4
v -0.8 1.6 5.4
v -0.8 1.7 5.4
v -0.8 1.8 5.4
v -0.8 1.9 5.4
v -0.7 1.6 5.4
v -0.7 2 5.4
v -0.7 2.1 5.4
v -0.6 0 5.4
v -0.6 0.1 5.4
v -1.6 0.6 5.3
v -1.6 1.3 5.3
v -1.6 1.4 5.3
v -1.5 1.4 5.3
v -1.5 1.5 5.3
v -1.4 0.6 5.3
v -1.4 0.7 5.3
v -1.3 0.1 5.3
v -1.3 0.2 5.3
v -1.3 0.7 5.3
v -1.3 1.3 5.3
v -1.3 1.5 5.3
v -1.3 1.6 5.3
v -1.2 1.6 5.3
v -1.1 1.6 5.3
v -1 0.1 5.3
v -1 0.2 5.3
v -1 0.7 5.3
v -0.9 0.1 5.3
v -0.9 0.2 5.3
v -0.9 0.7 5.3
v -0.8 1.6 5.3
v -0.7 1.6 5.3
v -0.6 0.1 5.3
v -0.6 0.2 5.3
v -0.6 0.7 5.3
v -0.6 1.3 5.3
v -0.6 1.5 5.3
v -0.6 1.6 5.3
v -0.5 0.6 5.3
v -0.5 0.7 5.3
v -0.4 1.4 5.3
v -0.4 1.5 5.3
v -0.3 0.6 5.3
v -0.3 1.3 5.3
v -0.3 1.4 5.3
v -1.6 1.4 5.2
v -1.6 1.5 5.2
v -1.5 1.4 5.2
v -1.5 1.5 5.2
v -1.5 1.6 5.2
v -1.4 0.6 5.2
v -1.4 0.7 5.2
v -1.3 0.6 5.2
v -1.3 0.7 5.2
v -1.3 1.5 5.2
v -1.3 1.6 5.2
v -0.6 0.6 5.2
v -0.6 0.7 5.2
v -0.6 1.5 5.2
v -0.6 1.6 5.2
v -0.5 0.6 5.2
v -0.5 0.7 5.2
v -0.4 1.4 5.2
v -0.4 1.5 5.2
v -0.4 1.6 5.2
v -0.3 1.4 5.2
v -0.3 1.5 5.2
v -1.6 1.4 5.1
v -1.6 1.5 5.1
v -1.5 1.4 5.1
v -1.5 1.5 5.1
v -1.5 1.6 5.1
v -1.3 1.5 5.1
v -1.3 1.6 5.1
v -0.6 1.5 5.1
v -0.6 1.6 5.1
v -0.4 1.4 5.1
v -0.4 1.5 5.1
v -0.4 1.6 5.1
v -0.3 1.4 5.1
v -0.3 1.5 5.1
v -1.6 0.6 5
v -1.6 1.3 5
v -1.6 1.4 5
v -1.5 1.4 5
v -1.5 1.5 5
v -1.3 0 5
v -1.3 0.2 5
v -1.3 0.6 5
v -1.3 0.7 5
v -1.3 1.3 5
v -1.3 1.5 5
v -1.3 1.6 5
v -1.2 1.6 5
v -1.1 1.6 5
v -1 0 5
v -1 0.2 5
v -1 0.7 5
v -0.9 0 5
v -0.9 0.2 5
v -0.9 0.7 5
v -0.8 1.6 5
v -0.7 1.6 5
v -0.6 0 5
v -0.6 0.2 5
v -0.6 0.6 5
v -0.6 0.7 5
v -0.6 1.3 5
v -0.6 1.5 5
v -0.6 1.6 5
v -0.4 1.4 5
v -0.4 1.5 5
v -0.3 0.6 5
v -0.3 1.3 5
v -0.3 1.4 5
v -1.2 1.6 4.9
v -1.2 2.1 4.9
v -1.1 1.6 4.9
v -1.1 1.7 4.9
v -0.8 1.6 4.9
v -0.8 1.7 4.9
v -0.7 1.6 4.9
v -0.7 2.1 4.9
v -1.3 0 5.4
v -1 0 5.4
v -0.9 0 5.4
v -0.6 0 5.4
v -1.3 0 5
v -1 0 5
v -0.9 0 5
v -0.6 0 5
v -1.6 0.6 5.3
v -1.4 0.6 5.3
v -0.5 0.6 5.3
v -0.3 0.6 5.3
v -1.4 0.6 5.2
v -1.3 0.6 5.2
v -0.6 0.6 5.2
v -0.5 0.6 5.2
v -1.6 0.6 5
v -1.3 0.6 5
v -0.6 0.6 5
v -0.3 0.6 5
v -1.4 0.7 5.3
v -1.3 0.7 5.3
v -1 0.7 5.3
v -0.9 0.7 5.3
v -0.6 0.7 5.3
v -0.5 0.7 5.3
v -1.4 0.7 5.2
v -1.3 0.7 5.2
v -0.6 0.7 5.2
v -0.5 0.7 5.2
v -1 0.7 5
v -0.9 0.7 5
v -1.2 1.6 5.4
v -1.1 1.6 5.4
v -0.8 1.6 5.4
v -0.7 1.6 5.4
v -1.2 1.6 5.3
v -1.1 1.6 5.3
v -0.8 1.6 5.3
v -0.7 1.6 5.3
v -1.2 1.6 5
v -1.1 1.6 5
v -0.8 1.6 5
v -0.7 1.6 5
v -1.2 1.6 4.9
v -1.1 1.6 4.9
v -0.8 1.6 4.9
v -0.7 1.6 4.9
v -1.3 0.1 5.4
v -1 0.1 5.4
v -0.9 0.1 5.4
v -0.6 0.1 5.4
v -1.3 0.1 5.3
v -1 0.1 5.3
v -0.9 0.1 5.3
v -0.6 0.1 5.3
v -1.6 1.4 5.3
v -1.5 1.4 5.3
v -0.4 1.4 5.3
v -0.3 1.4 5.3
v -1.6 1.4 5.2
v -1.5 1.4 5.2
v -0.4 1.4 5.2
v -0.3 1.4 5.2
v -1.6 1.4 5.1
v -1.5 1.4 5.1
v -0.4 1.4 5.1
v -0.3 1.4 5.1
v -1.6 1.4 5
v -1.5 1.4 5
v -0.4 1.4 5
v -0.3 1.4 5
v -1.5 1.5 5.3
v -1.3 1.5 5.3
v -0.6 1.5 5.3
v -0.4 1.5 5.3
v -1.6 1.5 5.2
v -1.5 1.5 5.2
v -1.3 1.5 5.2
v -0.6 1.5 5.2
v -0.4 1.5 5.2
v -0.3 1.5 5.2
v -1.6 1.5 5.1
v -1.5 1.5 5.1
v -1.3 1.5 5.1
v -0.6 1.5 5.1
v -0.4 1.5 5.1
v -0.3 1.5 5.1
v -1.5 1.5 5
v -1.3 1.5 5
v -0.6 1.5 5
v -0.4 1.5 5
v -1.3 1.6 5.3
v -1.2 1.6 5.3
v -0.7 1.6 5.3
v -0.6 1.6 5.3
v -1.5 1.6 5.2
v -1.3 1.6 5.2
v -0.6 1.6 5.2
v -0.4 1.6 5.2
v -1.5 1.6 5.1
v -1.3 1.6 5.1
v -0.6 1.6 5.1
v -0.4 1.6 5.1
v -1.3 1.6 5
v -1.2 1.6 5
v -0.7 1.6 5
v -0.6 1.6 5
v -1.2 2.1 5.4
v -0.7 2.1 5.4
v -1.2 2.1 4.9
v -0.7 2.1 4.9

# faces
f 3/1/1 2/1/1 1/1/1
f 4/1/1 2/1/1 3/1/1
f 5/3/1 4/3/1 3/3/1
f 6/3/1 4/3/1 5/3/1
f 7/3/1 4/3/1 6/3/1
f 8/3/1 4/3/1 7/3/1
f 9/3/1 7/3/1 6/3/1
f 10/3/1 7/3/1 9/3/1
f 15/3/1 12/3/1 11/3/1
f 16/3/1 12/3/1 15/3/1
f 17/3/1 14/3/1 13/3/1
f 18/3/1 14/3/1 17/3/1
f 19/3/1 17/3/1 16/3/1
f 20/3/1 17/3/1 19/3/1
f 23/6/1 22/6/1 21/6/1
f 24/6/1 22/6/1 23/6/1
f 25/6/1 22/6/1 24/6/1
f 26/6/1 22/6/1 25/6/1
f 27/4/1 26/4/1 25/4/1
f 28/4/1 26/4/1 27/4/1
f 29/4/1 27/4/1 25/4/1
f 30/4/1 27/4/1 29/4/1
f 35/3/1 32/3/1 31/3/1
f 36/3/1 32/3/1 35/3/1
f 37/3/1 34/3/1 33/3/1
f 38/3/1 34/3/1 37/3/1
f 43/1/1 40/1/1 39/1/1
f 43/1/1 41/1/1 40/1/1
f 44/5/1 42/5/1 41/5/1
f 44/1/1 41/1/1 43/1/1
f 45/1/1 43/1/1 39/1/1
f 46/5/1 44/5/1 43/5/1
f 46/1/1 43/1/1 45/1/1
f 47/1/1 45/1/1 39/1/1
f 48/5/1 46/5/1 45/5/1
f 48/1/1 45/1/1 47/1/1
f 49/1/1 47/1/1 39/1/1
f 50/5/1 48/5/1 47/5/1
f 50/1/1 47/1/1 49/1/1
f 51/5/1 50/5/1 49/5/1
f 52/5/1 42/5/1 44/5/1
f 52/5/1 50/5/1 51/5/1
f 52/5/1 44/5/1 46/5/1
f 52/5/1 48/5/1 50/5/1
f 52/5/1 46/5/1 48/5/1
f 55/6/1 54/6/1 53/6/1
f 56/6/1 54/6/1 55/6/1
f 57/6/1 54/6/1 56/6/1
f 58/6/1 54/6/1 57/6/1
f 59/4/1 58/4/1 57/4/1
f 60/4/1 58/4/1 59/4/1
f 63/1/1 62/1/1 61/1/1
f 64/1/1 62/1/1 63/1/1
f 65/1/2 66/1/2 67/1/2
f 67/1/2 66/1/2 68/1/2
f 69/6/2 70/6/2 71/6/2
f 71/6/2 70/6/2 72/6/2
f 72/6/2 70/6/2 73/6/2
f 73/6/2 70/6/2 74/6/2
f 73/4/2 74/4/2 75/4/2
f 75/4/2 74/4/2 76/4/2
f 77/1/2 78/1/2 81/1/2
f 78/1/2 79/1/2 81/1/2
f 79/5/2 80/5/2 82/5/2
f 81/1/2 79/1/2 82/1/2
f 77/1/2 81/1/2 83/1/2
f 81/5/2 82/5/2 84/5/2
f 83/1/2 81/1/2 84/1/2
f 77/1/2 83/1/2 85/1/2
f 83/5/2 84/5/2 86/5/2
f 85/1/2 83/1/2 86/1/2
f 77/1/2 85/1/2 87/1/2
f 85/5/2 86/5/2 88/5/2
f 87/1/2 85/1/2 88/1/2
f 87/5/2 88/5/2 89/5/2
f 82/5/2 80/5/2 90/5/2
f 89/5/2 88/5/2 90/5/2
f 84/5/2 82/5/2 90/5/2
f 88/5/2 86/5/2 90/5/2
f 86/5/2 84/5/2 90/5/2
f 91/6/2 92/6/2 93/6/2
f 93/6/2 92/6/2 94/6/2
f 94/6/2 92/6/2 95/6/2
f 95/6/2 92/6/2 96/6/2
f 95/4/2 96/4/2 97/4/2
f 97/4/2 96/4/2 98/4/2
f 95/4/2 97/4/2 99/4/2
f 99/4/2 97/4/2 100/4/2
f 101/3/2 102/3/2 105/3/2
f 105/3/2 102/3/2 106/3/2
f 103/3/2 104/3/2 107/3/2
f 107/3/2 104/3/2 108/3/2
f 109/3/2 110/3/2 113/3/2
f 113/3/2 110/3/2 114/3/2
f 111/3/2 112/3/2 115/3/2
f 115/3/2 112/3/2 116/3/2
f 114/3/2 115/3/2 117/3/2
f 117/3/2 115/3/2 118/3/2
f 119/1/2 120/1/2 121/1/2
f 121/1/2 120/1/2 122/1/2
f 121/3/2 122/3/2 123/3/2
f 123/3/2 122/3/2 124/3/2
f 124/3/2 122/3/2 125/3/2
f 125/3/2 122/3/2 126/3/2
f 124/3/2 125/3/2 127/3/2
f 127/3/2 125/3/2 128/3/2
f 134/1/3 132/1/3 131/1/3
f 135/1/3 132/1/3 134/1/3
f 136/1/3 132/1/3 135/1/3
f 137/1/3 132/1/3 136/1/3
f 138/6/3 130/6/3 129/6/3
f 139/6/3 130/6/3 138/6/3
f 140/1/3 136/1/3 135/1/3
f 140/7/3 137/7/3 136/7/3
f 141/1/3 132/1/3 137/1/3
f 141/7/3 137/7/3 140/7/3
f 144/1/3 140/1/3 135/1/3
f 144/1/3 141/1/3 140/1/3
f 145/1/3 132/1/3 141/1/3
f 145/1/3 141/1/3 144/1/3
f 146/2/3 135/2/3 134/2/3
f 147/1/3 144/1/3 135/1/3
f 147/2/3 135/2/3 146/2/3
f 148/7/3 145/7/3 144/7/3
f 148/1/3 144/1/3 147/1/3
f 149/1/3 132/1/3 145/1/3
f 149/7/3 145/7/3 148/7/3
f 150/1/3 148/1/3 147/1/3
f 150/1/3 147/1/3 146/1/3
f 150/1/3 149/1/3 148/1/3
f 151/5/3 133/5/3 132/5/3
f 151/1/3 149/1/3 150/1/3
f 151/1/3 132/1/3 149/1/3
f 152/5/3 133/5/3 151/5/3
f 153/6/3 143/6/3 142/6/3
f 154/6/3 143/6/3 153/6/3
f 158/3/3 157/3/3 156/3/3
f 160/1/3 156/1/3 155/1/3
f 161/1/3 156/1/3 160/1/3
f 164/1/3 156/1/3 161/1/3
f 165/3/3 159/3/3 158/3/3
f 165/3/3 158/3/3 156/3/3
f 165/1/3 156/1/3 164/1/3
f 166/3/3 159/3/3 165/3/3
f 168/3/3 165/3/3 164/3/3
f 168/3/3 167/3/3 166/3/3
f 168/3/3 166/3/3 165/3/3
f 169/3/3 168/3/3 164/3/3
f 170/6/3 163/6/3 162/6/3
f 171/4/3 164/4/3 163/4/3
f 171/6/3 163/6/3 170/6/3
f 172/3/3 169/3/3 164/3/3
f 172/4/3 164/4/3 171/4/3
f 175/3/3 169/3/3 172/3/3
f 176/3/3 169/3/3 175/3/3
f 177/3/3 176/3/3 175/3/3
f 178/6/3 174/6/3 173/6/3
f 179/4/3 175/4/3 174/4/3
f 179/6/3 174/6/3 178/6/3
f 180/3/3 177/3/3 175/3/3
f 180/4/3 175/4/3 179/4/3
f 181/3/3 177/3/3 180/3/3
f 182/3/3 177/3/3 181/3/3
f 183/3/3 177/3/3 182/3/3
f 185/1/3 181/1/3 180/1/3
f 186/3/3 182/3/3 181/3/3
f 187/3/3 182/3/3 186/3/3
f 188/1/3 185/1/3 184/1/3
f 189/1/3 181/1/3 185/1/3
f 189/1/3 185/1/3 188/1/3
f 189/3/3 186/3/3 181/3/3
f 190/3/3 186/3/3 189/3/3
f 193/3/3 192/3/3 191/3/3
f 194/3/3 192/3/3 193/3/3
f 198/1/3 197/1/3 196/1/3
f 199/1/3 197/1/3 198/1/3
f 200/3/3 195/3/3 194/3/3
f 201/3/3 195/3/3 200/3/3
f 206/1/3 203/1/3 202/1/3
f 207/1/3 203/1/3 206/1/3
f 209/3/3 205/3/3 204/3/3
f 210/3/3 205/3/3 209/3/3
f 211/3/3 209/3/3 208/3/3
f 212/3/3 209/3/3 211/3/3
f 213/3/4 214/3/4 215/3/4
f 215/3/4 214/3/4 216/3/4
f 216/3/4 217/3/4 218/3/4
f 218/3/4 217/3/4 219/3/4
f 220/3/4 221/3/4 223/3/4
f 223/3/4 221/3/4 224/3/4
f 222/3/4 223/3/4 225/3/4
f 225/3/4 223/3/4 226/3/4
f 228/3/4 229/3/4 230/3/4
f 227/1/4 228/1/4 234/1/4
f 234/1/4 228/1/4 235/1/4
f 228/3/4 230/3/4 236/3/4
f 235/1/4 228/1/4 236/1/4
f 230/3/4 231/3/4 236/3/4
f 236/3/4 231/3/4 237/3/4
f 235/3/4 236/3/4 239/3/4
f 237/3/4 238/3/4 239/3/4
f 236/3/4 237/3/4 239/3/4
f 235/3/4 239/3/4 240/3/4
f 232/6/4 233/6/4 241/6/4
f 234/4/4 235/4/4 242/4/4
f 241/6/4 233/6/4 242/6/4
f 233/4/4 234/4/4 242/4/4
f 235/3/4 240/3/4 243/3/4
f 242/4/4 235/4/4 243/4/4
f 243/3/4 240/3/4 246/3/4
f 246/3/4 240/3/4 247/3/4
f 246/3/4 247/3/4 248/3/4
f 244/6/4 245/6/4 249/6/4
f 245/4/4 246/4/4 250/4/4
f 249/6/4 245/6/4 250/6/4
f 250/4/4 246/4/4 251/4/4
f 246/3/4 248/3/4 252/3/4
f 251/4/4 246/4/4 252/4/4
f 252/3/4 248/3/4 253/3/4
f 253/3/4 248/3/4 254/3/4
f 254/3/4 248/3/4 255/3/4
f 253/3/4 254/3/4 256/3/4
f 256/3/4 254/3/4 257/3/4
f 252/1/4 253/1/4 258/1/4
f 251/1/4 252/1/4 258/1/4
f 253/3/4 256/3/4 259/3/4
f 258/1/4 253/1/4 259/1/4
f 259/3/4 256/3/4 260/3/4
f 261/5/4 262/5/4 263/5/4
f 263/5/4 262/5/4 264/5/4
f 263/1/4 264/1/4 265/1/4
f 264/5/4 262/5/4 266/5/4
f 265/1/4 264/1/4 266/1/4
f 265/5/4 266/5/4 267/5/4
f 266/5/4 262/5/4 268/5/4
f 267/5/4 266/5/4 268/5/4
f 273/6/5 270/6/5 269/6/5
f 274/6/5 270/6/5 273/6/5
f 275/6/5 272/6/5 271/6/5
f 276/6/5 272/6/5 275/6/5
f 281/1/5 278/1/5 277/1/5
f 284/1/5 280/1/5 279/1/5
f 285/1/5 282/1/5 281/1/5
f 285/1/5 281/1/5 277/1/5
f 286/1/5 282/1/5 285/1/5
f 287/1/5 284/1/5 283/1/5
f 288/1/5 280/1/5 284/1/5
f 288/1/5 284/1/5 287/1/5
f 295/1/5 290/1/5 289/1/5
f 296/1/5 290/1/5 295/1/5
f 297/1/5 294/1/5 293/1/5
f 298/1/5 294/1/5 297/1/5
f 299/3/5 292/3/5 291/3/5
f 300/3/5 292/3/5 299/3/5
f 305/1/5 302/1/5 301/1/5
f 306/2/5 303/2/5 302/2/5
f 306/1/5 302/1/5 305/1/5
f 307/1/5 304/1/5 303/1/5
f 307/2/5 303/2/5 306/2/5
f 308/1/5 304/1/5 307/1/5
f 313/5/5 310/5/5 309/5/5
f 314/1/5 311/1/5 310/1/5
f 314/5/5 310/5/5 313/5/5
f 315/5/5 312/5/5 311/5/5
f 315/1/5 311/1/5 314/1/5
f 316/5/5 312/5/5 315/5/5
f 317/6/6 318/6/6 321/6/6
f 321/6/6 318/6/6 322/6/6
f 319/6/6 320/6/6 323/6/6
f 323/6/6 320/6/6 324/6/6
f 325/3/6 326/3/6 329/3/6
f 329/3/6 326/3/6 330/3/6
f 327/3/6 328/3/6 331/3/6
f 331/3/6 328/3/6 332/3/6
f 333/3/6 334/3/6 337/3/6
f 337/3/6 334/3/6 338/3/6
f 335/3/6 336/3/6 339/3/6
f 339/3/6 336/3/6 340/3/6
f 341/3/6 342/3/6 346/3/6
f 346/3/6 342/3/6 347/3/6
f 343/3/6 344/3/6 348/3/6
f 348/3/6 344/3/6 349/3/6
f 345/3/6 346/3/6 351/3/6
f 351/3/6 346/3/6 352/3/6
f 349/3/6 350/3/6 355/3/6
f 355/3/6 350/3/6 356/3/6
f 352/3/6 353/3/6 357/3/6
f 357/3/6 353/3/6 358/3/6
f 354/3/6 355/3/6 359/3/6
f 359/3/6 355/3/6 360/3/6
f 361/3/6 362/3/6 366/3/6
f 363/3/6 364/3/6 367/3/6
f 365/3/6 366/3/6 369/3/6
f 366/3/6 362/3/6 370/3/6
f 369/3/6 366/3/6 370/3/6
f 367/3/6 368/3/6 371/3/6
f 363/3/6 367/3/6 371/3/6
f 371/3/6 368/3/6 372/3/6
f 370/3/6 362/3/6 373/3/6
f 373/3/6 362/3/6 374/3/6
f 363/3/6 371/3/6 375/3/6
f 375/3/6 371/3/6 376/3/6
f 377/5/6 378/5/6 379/5/6
f 379/5/6 378/5/6 380/5/6
