# MagicaVoxel @ Ephtracy

# group
o 

# material
mtllib zombie.mtl
usemtl palette

# normals
vn -1 0 0
vn 1 0 0
vn 0 0 1
vn 0 0 -1
vn 0 -1 0
vn 0 1 0

# texcoords
vt 0.509766 0.5
vt 0.513672 0.5
vt 0.642578 0.5
vt 0.646484 0.5
vt 0.880859 0.5
vt 0.943359 0.5
vt 0.947266 0.5

# verts
v -4.5 0.6 5.3
v -4.5 0.6 5
v -4.5 0.7 5.1
v -4.5 0.7 5
v -4.5 0.9 5.3
v -4.5 0.9 5.2
v -4.5 0.9 5.1
v -4.5 0.9 5
v -4.5 1.1 5.3
v -4.5 1.1 5.2
v -4.5 1.3 5.2
v -4.5 1.3 5
v -4.5 1.4 5.3
v -4.5 1.4 5.2
v -4.5 1.4 5.1
v -4.5 1.4 5
v -4.5 1.5 5.2
v -4.5 1.5 5.1
v -4.4 1.4 5.3
v -4.4 1.4 5.2
v -4.4 1.4 5.1
v -4.4 1.4 5
v -4.4 1.5 5.3
v -4.4 1.5 5.2
v -4.4 1.5 5.1
v -4.4 1.5 5
v -4.4 1.6 5.2
v -4.4 1.6 5.1
v -4.2 0 5.4
v -4.2 0 5
v -4.2 0.1 5.4
v -4.2 0.1 5.3
v -4.2 0.2 5.3
v -4.2 0.2 5.2
v -4.2 0.2 5.1
v -4.2 0.2 5
v -4.2 0.3 5.1
v -4.2 0.3 5
v -4.2 0.4 5.3
v -4.2 0.4 5.2
v -4.2 0.4 5.1
v -4.2 0.4 5
v -4.2 0.6 5.2
v -4.2 0.6 5
v -4.2 0.7 5.3
v -4.2 0.7 5.2
v -4.2 1.5 5.3
v -4.2 1.5 5.2
v -4.2 1.5 5.1
v -4.2 1.5 5
v -4.2 1.6 5.3
v -4.2 1.6 5.2
v -4.2 1.6 5.1
v -4.2 1.6 5
v -4.1 1.6 5.4
v -4.1 1.6 5.3
v -4.1 1.6 5.1
v -4.1 1.6 5
v -4.1 1.6 4.9
v -4.1 1.7 5.3
v -4.1 1.7 5.1
v -4.1 1.7 5
v -4.1 1.8 5.2
v -4.1 1.8 5.1
v -4.1 1.9 5.3
v -4.1 1.9 5.2
v -4.1 2 5.4
v -4.1 2 5.3
v -4.1 2.1 5.4
v -4.1 2.1 4.9
v -3.8 0 5.4
v -3.8 0 5
v -3.8 0.1 5.4
v -3.8 0.1 5.3
v -3.8 0.2 5.3
v -3.8 0.2 5
v -3.8 0.7 5.3
v -3.8 0.7 5
v -3.4 0.6 5.3
v -3.4 0.6 5.2
v -3.4 0.7 5.3
v -3.4 0.7 5.2
v -4.3 0.6 5.3
v -4.3 0.6 5.2
v -4.3 0.7 5.3
v -4.3 0.7 5.2
v -3.9 0 5.4
v -3.9 0 5
v -3.9 0.1 5.4
v -3.9 0.1 5.3
v -3.9 0.2 5.3
v -3.9 0.2 5
v -3.9 0.7 5.3
v -3.9 0.7 5
v -3.6 1.6 5.4
v -3.6 1.6 5.3
v -3.6 1.6 5.2
v -3.6 1.6 5
v -3.6 1.6 4.9
v -3.6 1.7 5.4
v -3.6 1.7 5.3
v -3.6 1.7 5.1
v -3.6 1.7 5
v -3.6 1.8 5.4
v -3.6 1.8 5.3
v -3.6 1.8 5.2
v -3.6 1.8 5.1
v -3.6 1.9 5.3
v -3.6 1.9 5.2
v -3.6 2 5.4
v -3.6 2 5.3
v -3.6 2.1 5.4
v -3.6 2.1 4.9
v -3.5 0 5.4
v -3.5 0 5
v -3.5 0.1 5.4
v -3.5 0.1 5.3
v -3.5 0.2 5.3
v -3.5 0.2 5.1
v -3.5 0.2 5
v -3.5 0.3 5.1
v -3.5 0.3 5
v -3.5 0.4 5.3
v -3.5 0.4 5.2
v -3.5 0.6 5.3
v -3.5 0.6 5.2
v -3.5 0.6 5
v -3.5 0.7 5.3
v -3.5 0.7 5.2
v -3.5 1.5 5.3
v -3.5 1.5 5.2
v -3.5 1.5 5.1
v -3.5 1.5 5
v -3.5 1.6 5.3
v -3.5 1.6 5.2
v -3.5 1.6 5.1
v -3.5 1.6 5
v -3.3 1.4 5.3
v -3.3 1.4 5.2
v -3.3 1.4 5.1
v -3.3 1.4 5
v -3.3 1.5 5.3
v -3.3 1.5 5.2
v -3.3 1.5 5.1
v -3.3 1.5 5
v -3.3 1.6 5.2
v -3.3 1.6 5.1
v -3.2 0.6 5.3
v -3.2 0.6 5.2
v -3.2 0.6 5.1
v -3.2 0.6 5
v -3.2 0.7 5.3
v -3.2 0.7 5.2
v -3.2 0.7 5.1
v -3.2 0.9 5.3
v -3.2 0.9 5.2
v -3.2 1.2 5.1
v -3.2 1.2 5
v -3.2 1.3 5.3
v -3.2 1.3 5.1
v -3.2 1.4 5.3
v -3.2 1.4 5.2
v -3.2 1.4 5.1
v -3.2 1.4 5
v -3.2 1.5 5.2
v -3.2 1.5 5.1
v -4.2 0 5.4
v -4.2 0.1 5.4
v -4.1 1.6 5.4
v -4.1 2 5.4
v -4.1 2.1 5.4
v -4 1.6 5.4
v -4 1.7 5.4
v -4 1.8 5.4
v -4 1.9 5.4
v -4 2 5.4
v -3.9 0 5.4
v -3.9 0.1 5.4
v -3.9 1.8 5.4
v -3.9 1.9 5.4
v -3.9 2 5.4
v -3.8 0 5.4
v -3.8 0.1 5.4
v -3.8 1.8 5.4
v -3.8 1.9 5.4
v -3.7 1.6 5.4
v -3.7 1.7 5.4
v -3.7 1.8 5.4
v -3.7 1.9 5.4
v -3.6 1.6 5.4
v -3.6 1.7 5.4
v -3.6 1.8 5.4
v -3.6 2 5.4
v -3.6 2.1 5.4
v -3.5 0 5.4
v -3.5 0.1 5.4
v -4.5 0.6 5.3
v -4.5 0.9 5.3
v -4.5 1.1 5.3
v -4.5 1.4 5.3
v -4.4 0.9 5.3
v -4.4 1.1 5.3
v -4.4 1.2 5.3
v -4.4 1.3 5.3
v -4.4 1.4 5.3
v -4.4 1.5 5.3
v -4.3 0.6 5.3
v -4.3 0.7 5.3
v -4.3 1.1 5.3
v -4.3 1.2 5.3
v -4.2 0.1 5.3
v -4.2 0.2 5.3
v -4.2 0.4 5.3
v -4.2 0.7 5.3
v -4.2 0.8 5.3
v -4.2 1 5.3
v -4.2 1.3 5.3
v -4.2 1.5 5.3
v -4.2 1.6 5.3
v -4.1 0.2 5.3
v -4.1 0.4 5.3
v -4.1 0.6 5.3
v -4.1 0.7 5.3
v -4.1 0.8 5.3
v -4.1 1 5.3
v -4.1 1.4 5.3
v -4.1 1.6 5.3
v -4 0.6 5.3
v -4 0.7 5.3
v -4 1.3 5.3
v -4 1.4 5.3
v -4 1.6 5.3
v -3.9 0.1 5.3
v -3.9 0.2 5.3
v -3.9 0.7 5.3
v -3.9 1.3 5.3
v -3.9 1.4 5.3
v -3.9 1.6 5.3
v -3.8 0.1 5.3
v -3.8 0.2 5.3
v -3.8 0.7 5.3
v -3.8 1 5.3
v -3.8 1.1 5.3
v -3.7 0.6 5.3
v -3.7 0.7 5.3
v -3.7 1.1 5.3
v -3.7 1.2 5.3
v -3.7 1.6 5.3
v -3.6 0.4 5.3
v -3.6 0.6 5.3
v -3.6 0.7 5.3
v -3.6 1 5.3
v -3.6 1.2 5.3
v -3.6 1.6 5.3
v -3.5 0.1 5.3
v -3.5 0.2 5.3
v -3.5 0.4 5.3
v -3.5 0.6 5.3
v -3.5 0.7 5.3
v -3.5 1 5.3
v -3.5 1.2 5.3
v -3.5 1.3 5.3
v -3.5 1.5 5.3
v -3.5 1.6 5.3
v -3.4 0.6 5.3
v -3.4 0.7 5.3
v -3.4 1 5.3
v -3.4 1.2 5.3
v -3.4 1.3 5.3
v -3.4 1.4 5.3
v -3.3 0.7 5.3
v -3.3 0.9 5.3
v -3.3 1.3 5.3
v -3.3 1.4 5.3
v -3.3 1.5 5.3
v -3.2 0.6 5.3
v -3.2 0.7 5.3
v -3.2 0.9 5.3
v -3.2 1.3 5.3
v -3.2 1.4 5.3
v -4.5 1.4 5.2
v -4.5 1.5 5.2
v -4.4 1.4 5.2
v -4.4 1.5 5.2
v -4.4 1.6 5.2
v -4.3 0.6 5.2
v -4.3 0.7 5.2
v -4.2 0.6 5.2
v -4.2 0.7 5.2
v -4.2 1.5 5.2
v -4.2 1.6 5.2
v -3.5 0.6 5.2
v -3.5 0.7 5.2
v -3.5 1.5 5.2
v -3.5 1.6 5.2
v -3.4 0.6 5.2
v -3.4 0.7 5.2
v -3.3 1.4 5.2
v -3.3 1.5 5.2
v -3.3 1.6 5.2
v -3.2 1.4 5.2
v -3.2 1.5 5.2
v -4.5 1.4 5.1
v -4.5 1.5 5.1
v -4.4 1.4 5.1
v -4.4 1.5 5.1
v -4.4 1.6 5.1
v -4.2 1.5 5.1
v -4.2 1.6 5.1
v -3.5 1.5 5.1
v -3.5 1.6 5.1
v -3.3 1.4 5.1
v -3.3 1.5 5.1
v -3.3 1.6 5.1
v -3.2 1.4 5.1
v -3.2 1.5 5.1
v -4.5 0.6 5
v -4.5 0.7 5
v -4.5 0.9 5
v -4.5 1.3 5
v -4.5 1.4 5
v -4.4 0.7 5
v -4.4 0.9 5
v -4.4 1.3 5
v -4.4 1.4 5
v -4.4 1.5 5
v -4.3 1 5
v -4.3 1.2 5
v -4.2 0 5
v -4.2 0.2 5
v -4.2 0.3 5
v -4.2 0.4 5
v -4.2 0.6 5
v -4.2 0.7 5
v -4.2 1 5
v -4.2 1.2 5
v -4.2 1.4 5
v -4.2 1.5 5
v -4.2 1.6 5
v -4.1 0.2 5
v -4.1 0.3 5
v -4.1 0.4 5
v -4.1 0.9 5
v -4.1 1.1 5
v -4.1 1.6 5
v -4 0.9 5
v -4 1 5
v -4 1.1 5
v -4 1.6 5
v -3.9 0 5
v -3.9 0.2 5
v -3.9 0.7 5
v -3.9 1 5
v -3.9 1.1 5
v -3.8 0 5
v -3.8 0.2 5
v -3.8 0.7 5
v -3.8 0.8 5
v -3.8 0.9 5
v -3.8 1 5
v -3.7 0.3 5
v -3.7 0.5 5
v -3.7 0.7 5
v -3.7 0.8 5
v -3.7 0.9 5
v -3.7 1 5
v -3.7 1.2 5
v -3.7 1.4 5
v -3.7 1.6 5
v -3.6 0.2 5
v -3.6 0.3 5
v -3.6 0.5 5
v -3.6 0.7 5
v -3.6 0.8 5
v -3.6 1.2 5
v -3.6 1.4 5
v -3.6 1.6 5
v -3.5 0 5
v -3.5 0.2 5
v -3.5 0.3 5
v -3.5 0.6 5
v -3.5 0.7 5
v -3.5 0.8 5
v -3.5 0.9 5
v -3.5 1.3 5
v -3.5 1.5 5
v -3.5 1.6 5
v -3.4 0.6 5
v -3.4 0.8 5
v -3.4 0.9 5
v -3.4 1.3 5
v -3.4 1.4 5
v -3.3 0.6 5
v -3.3 0.8 5
v -3.3 1.2 5
v -3.3 1.4 5
v -3.3 1.5 5
v -3.2 0.6 5
v -3.2 1.2 5
v -3.2 1.4 5
v -4.1 1.6 4.9
v -4.1 2.1 4.9
v -4 1.6 4.9
v -4 1.7 4.9
v -3.7 1.6 4.9
v -3.7 1.7 4.9
v -3.6 1.6 4.9
v -3.6 2.1 4.9
v -4.2 0 5.4
v -3.9 0 5.4
v -3.8 0 5.4
v -3.5 0 5.4
v -4.2 0 5
v -3.9 0 5
v -3.8 0 5
v -3.5 0 5
v -4.5 0.6 5.3
v -4.3 0.6 5.3
v -3.4 0.6 5.3
v -3.2 0.6 5.3
v -4.3 0.6 5.2
v -4.2 0.6 5.2
v -3.5 0.6 5.2
v -3.4 0.6 5.2
v -3.3 0.6 5.2
v -3.2 0.6 5.2
v -3.4 0.6 5.1
v -3.3 0.6 5.1
v -3.2 0.6 5.1
v -4.5 0.6 5
v -4.2 0.6 5
v -3.5 0.6 5
v -3.4 0.6 5
v -3.3 0.6 5
v -3.2 0.6 5
v -4.3 0.7 5.3
v -4.2 0.7 5.3
v -3.9 0.7 5.3
v -3.8 0.7 5.3
v -3.5 0.7 5.3
v -3.4 0.7 5.3
v -4.3 0.7 5.2
v -4.2 0.7 5.2
v -3.5 0.7 5.2
v -3.4 0.7 5.2
v -3.9 0.7 5
v -3.8 0.7 5
v -4.1 1.6 5.4
v -4 1.6 5.4
v -3.7 1.6 5.4
v -3.6 1.6 5.4
v -4.1 1.6 5.3
v -4 1.6 5.3
v -3.9 1.6 5.3
v -3.7 1.6 5.3
v -3.6 1.6 5.3
v -4.1 1.6 5
v -4 1.6 5
v -3.7 1.6 5
v -3.6 1.6 5
v -4.1 1.6 4.9
v -4 1.6 4.9
v -3.7 1.6 4.9
v -3.6 1.6 4.9
v -4.2 0.1 5.4
v -3.9 0.1 5.4
v -3.8 0.1 5.4
v -3.5 0.1 5.4
v -4.2 0.1 5.3
v -3.9 0.1 5.3
v -3.8 0.1 5.3
v -3.5 0.1 5.3
v -4.5 1.4 5.3
v -4.4 1.4 5.3
v -3.3 1.4 5.3
v -3.2 1.4 5.3
v -4.5 1.4 5.2
v -4.4 1.4 5.2
v -3.3 1.4 5.2
v -3.2 1.4 5.2
v -4.5 1.4 5.1
v -4.4 1.4 5.1
v -3.3 1.4 5.1
v -3.2 1.4 5.1
v -4.5 1.4 5
v -4.4 1.4 5
v -3.3 1.4 5
v -3.2 1.4 5
v -4.4 1.5 5.3
v -4.2 1.5 5.3
v -3.5 1.5 5.3
v -3.3 1.5 5.3
v -4.5 1.5 5.2
v -4.4 1.5 5.2
v -4.2 1.5 5.2
v -3.5 1.5 5.2
v -3.3 1.5 5.2
v -3.2 1.5 5.2
v -4.5 1.5 5.1
v -4.4 1.5 5.1
v -4.2 1.5 5.1
v -3.5 1.5 5.1
v -3.3 1.5 5.1
v -3.2 1.5 5.1
v -4.4 1.5 5
v -4.2 1.5 5
v -3.5 1.5 5
v -3.3 1.5 5
v -4.2 1.6 5.3
v -4.1 1.6 5.3
v -3.6 1.6 5.3
v -3.5 1.6 5.3
v -4.4 1.6 5.2
v -4.2 1.6 5.2
v -3.6 1.6 5.2
v -3.5 1.6 5.2
v -3.3 1.6 5.2
v -4.4 1.6 5.1
v -4.2 1.6 5.1
v -4.1 1.6 5.1
v -3.5 1.6 5.1
v -3.3 1.6 5.1
v -4.2 1.6 5
v -4.1 1.6 5
v -3.6 1.6 5
v -3.5 1.6 5
v -4.1 2.1 5.4
v -3.6 2.1 5.4
v -4.1 2.1 4.9
v -3.6 2.1 4.9

# faces
f 3/3/1 2/3/1 1/3/1
f 4/3/1 2/3/1 3/3/1
f 5/3/1 3/3/1 1/3/1
f 6/3/1 3/3/1 5/3/1
f 7/4/1 4/4/1 3/4/1
f 7/3/1 3/3/1 6/3/1
f 8/4/1 4/4/1 7/4/1
f 9/4/1 6/4/1 5/4/1
f 10/3/1 7/3/1 6/3/1
f 10/4/1 6/4/1 9/4/1
f 10/3/1 8/3/1 7/3/1
f 11/3/1 10/3/1 9/3/1
f 11/3/1 8/3/1 10/3/1
f 12/3/1 8/3/1 11/3/1
f 13/3/1 11/3/1 9/3/1
f 14/1/1 12/1/1 11/1/1
f 14/3/1 11/3/1 13/3/1
f 15/1/1 12/1/1 14/1/1
f 16/1/1 12/1/1 15/1/1
f 17/1/1 15/1/1 14/1/1
f 18/1/1 15/1/1 17/1/1
f 23/1/1 20/1/1 19/1/1
f 24/1/1 20/1/1 23/1/1
f 25/1/1 22/1/1 21/1/1
f 26/1/1 22/1/1 25/1/1
f 27/1/1 25/1/1 24/1/1
f 28/1/1 25/1/1 27/1/1
f 31/6/1 30/6/1 29/6/1
f 32/6/1 30/6/1 31/6/1
f 33/6/1 30/6/1 32/6/1
f 34/6/1 30/6/1 33/6/1
f 35/6/1 30/6/1 34/6/1
f 36/6/1 30/6/1 35/6/1
f 37/2/1 35/2/1 34/2/1
f 37/4/1 36/4/1 35/4/1
f 38/4/1 36/4/1 37/4/1
f 39/3/1 34/3/1 33/3/1
f 40/2/1 37/2/1 34/2/1
f 40/3/1 34/3/1 39/3/1
f 41/3/1 38/3/1 37/3/1
f 41/2/1 37/2/1 40/2/1
f 42/3/1 38/3/1 41/3/1
f 43/2/1 40/2/1 39/2/1
f 43/2/1 41/2/1 40/2/1
f 43/2/1 42/2/1 41/2/1
f 44/2/1 42/2/1 43/2/1
f 45/2/1 43/2/1 39/2/1
f 46/2/1 43/2/1 45/2/1
f 51/1/1 48/1/1 47/1/1
f 52/1/1 48/1/1 51/1/1
f 53/1/1 50/1/1 49/1/1
f 54/1/1 50/1/1 53/1/1
f 60/3/1 56/3/1 55/3/1
f 60/4/1 57/4/1 56/4/1
f 61/3/1 58/3/1 57/3/1
f 61/4/1 57/4/1 60/4/1
f 62/5/1 59/5/1 58/5/1
f 62/3/1 58/3/1 61/3/1
f 63/3/1 61/3/1 60/3/1
f 64/5/1 62/5/1 61/5/1
f 64/3/1 61/3/1 63/3/1
f 65/3/1 60/3/1 55/3/1
f 65/3/1 63/3/1 60/3/1
f 66/5/1 64/5/1 63/5/1
f 66/3/1 63/3/1 65/3/1
f 67/3/1 65/3/1 55/3/1
f 68/5/1 66/5/1 65/5/1
f 68/3/1 65/3/1 67/3/1
f 69/5/1 68/5/1 67/5/1
f 70/5/1 59/5/1 62/5/1
f 70/5/1 68/5/1 69/5/1
f 70/5/1 62/5/1 64/5/1
f 70/5/1 66/5/1 68/5/1
f 70/5/1 64/5/1 66/5/1
f 73/6/1 72/6/1 71/6/1
f 74/6/1 72/6/1 73/6/1
f 75/6/1 72/6/1 74/6/1
f 76/6/1 72/6/1 75/6/1
f 77/2/1 76/2/1 75/2/1
f 78/2/1 76/2/1 77/2/1
f 81/3/1 80/3/1 79/3/1
f 82/3/1 80/3/1 81/3/1
f 83/3/2 84/3/2 85/3/2
f 85/3/2 84/3/2 86/3/2
f 87/6/2 88/6/2 89/6/2
f 89/6/2 88/6/2 90/6/2
f 90/6/2 88/6/2 91/6/2
f 91/6/2 88/6/2 92/6/2
f 91/2/2 92/2/2 93/2/2
f 93/2/2 92/2/2 94/2/2
f 95/3/2 96/3/2 100/3/2
f 96/3/2 97/3/2 100/3/2
f 100/3/2 97/3/2 101/3/2
f 97/4/2 98/4/2 102/4/2
f 98/5/2 99/5/2 103/5/2
f 102/4/2 98/4/2 103/4/2
f 100/4/2 101/4/2 104/4/2
f 101/3/2 97/3/2 105/3/2
f 104/4/2 101/4/2 105/4/2
f 97/4/2 102/4/2 106/4/2
f 105/3/2 97/3/2 106/3/2
f 102/5/2 103/5/2 107/5/2
f 106/4/2 102/4/2 107/4/2
f 104/3/2 105/3/2 108/3/2
f 105/3/2 106/3/2 108/3/2
f 106/5/2 107/5/2 109/5/2
f 108/3/2 106/3/2 109/3/2
f 104/3/2 108/3/2 110/3/2
f 108/5/2 109/5/2 111/5/2
f 110/3/2 108/3/2 111/3/2
f 110/5/2 111/5/2 112/5/2
f 107/5/2 103/5/2 113/5/2
f 112/5/2 111/5/2 113/5/2
f 103/5/2 99/5/2 113/5/2
f 111/5/2 109/5/2 113/5/2
f 109/5/2 107/5/2 113/5/2
f 114/6/2 115/6/2 116/6/2
f 116/6/2 115/6/2 117/6/2
f 117/6/2 115/6/2 118/6/2
f 118/6/2 115/6/2 119/6/2
f 119/6/2 115/6/2 120/6/2
f 118/2/2 119/2/2 121/2/2
f 119/4/2 120/4/2 121/4/2
f 121/4/2 120/4/2 122/4/2
f 118/2/2 121/2/2 123/2/2
f 121/2/2 122/2/2 123/2/2
f 123/2/2 122/2/2 124/2/2
f 123/3/2 124/3/2 125/3/2
f 124/2/2 122/2/2 126/2/2
f 125/3/2 124/3/2 126/3/2
f 126/2/2 122/2/2 127/2/2
f 125/2/2 126/2/2 128/2/2
f 128/2/2 126/2/2 129/2/2
f 130/1/2 131/1/2 134/1/2
f 134/1/2 131/1/2 135/1/2
f 132/1/2 133/1/2 136/1/2
f 136/1/2 133/1/2 137/1/2
f 138/1/2 139/1/2 142/1/2
f 142/1/2 139/1/2 143/1/2
f 140/1/2 141/1/2 144/1/2
f 144/1/2 141/1/2 145/1/2
f 143/1/2 144/1/2 146/1/2
f 146/1/2 144/1/2 147/1/2
f 148/3/2 149/3/2 152/3/2
f 149/4/2 150/4/2 153/4/2
f 152/3/2 149/3/2 153/3/2
f 150/3/2 151/3/2 154/3/2
f 153/4/2 150/4/2 154/4/2
f 152/4/2 153/4/2 155/4/2
f 153/3/2 154/3/2 156/3/2
f 155/4/2 153/4/2 156/4/2
f 154/3/2 151/3/2 157/3/2
f 156/3/2 154/3/2 157/3/2
f 155/3/2 156/3/2 157/3/2
f 157/3/2 151/3/2 158/3/2
f 155/3/2 157/3/2 159/3/2
f 157/4/2 158/4/2 160/4/2
f 159/3/2 157/3/2 160/3/2
f 159/1/2 160/1/2 161/1/2
f 161/1/2 160/1/2 162/1/2
f 160/4/2 158/4/2 163/4/2
f 162/1/2 160/1/2 163/1/2
f 163/4/2 158/4/2 164/4/2
f 162/1/2 163/1/2 165/1/2
f 165/1/2 163/1/2 166/1/2
f 172/3/3 170/3/3 169/3/3
f 173/3/3 170/3/3 172/3/3
f 174/3/3 170/3/3 173/3/3
f 175/3/3 170/3/3 174/3/3
f 176/5/3 171/5/3 170/5/3
f 176/3/3 170/3/3 175/3/3
f 177/6/3 168/6/3 167/6/3
f 178/6/3 168/6/3 177/6/3
f 179/7/3 175/7/3 174/7/3
f 179/3/3 174/3/3 173/3/3
f 180/4/3 176/4/3 175/4/3
f 180/7/3 175/7/3 179/7/3
f 181/5/3 171/5/3 176/5/3
f 181/4/3 176/4/3 180/4/3
f 184/4/3 180/4/3 179/4/3
f 184/3/3 179/3/3 173/3/3
f 185/3/3 181/3/3 180/3/3
f 185/4/3 180/4/3 184/4/3
f 186/4/3 173/4/3 172/4/3
f 187/3/3 184/3/3 173/3/3
f 187/4/3 173/4/3 186/4/3
f 188/7/3 185/7/3 184/7/3
f 188/3/3 184/3/3 187/3/3
f 189/3/3 181/3/3 185/3/3
f 189/7/3 185/7/3 188/7/3
f 190/3/3 187/3/3 186/3/3
f 191/4/3 188/4/3 187/4/3
f 191/3/3 187/3/3 190/3/3
f 192/3/3 189/3/3 188/3/3
f 192/4/3 188/4/3 191/4/3
f 193/5/3 171/5/3 181/5/3
f 193/3/3 189/3/3 192/3/3
f 193/3/3 181/3/3 189/3/3
f 194/5/3 171/5/3 193/5/3
f 195/6/3 183/6/3 182/6/3
f 196/6/3 183/6/3 195/6/3
f 201/3/3 198/3/3 197/3/3
f 201/4/3 199/4/3 198/4/3
f 202/3/3 200/3/3 199/3/3
f 202/4/3 199/4/3 201/4/3
f 203/3/3 200/3/3 202/3/3
f 204/3/3 200/3/3 203/3/3
f 205/3/3 200/3/3 204/3/3
f 207/3/3 201/3/3 197/3/3
f 207/3/3 202/3/3 201/3/3
f 208/3/3 202/3/3 207/3/3
f 209/4/3 203/4/3 202/4/3
f 209/3/3 202/3/3 208/3/3
f 210/3/3 204/3/3 203/3/3
f 210/4/3 203/4/3 209/4/3
f 214/3/3 209/3/3 208/3/3
f 214/3/3 210/3/3 209/3/3
f 215/3/3 210/3/3 214/3/3
f 216/3/3 210/3/3 215/3/3
f 217/1/3 206/1/3 205/1/3
f 217/3/3 210/3/3 216/3/3
f 217/1/3 205/1/3 204/1/3
f 217/3/3 204/3/3 210/3/3
f 218/1/3 206/1/3 217/1/3
f 220/3/3 213/3/3 212/3/3
f 220/6/3 212/6/3 211/6/3
f 221/2/3 214/2/3 213/2/3
f 221/3/3 213/3/3 220/3/3
f 222/2/3 214/2/3 221/2/3
f 223/1/3 215/1/3 214/1/3
f 223/2/3 214/2/3 222/2/3
f 224/3/3 216/3/3 215/3/3
f 224/1/3 215/1/3 223/1/3
f 225/1/3 219/1/3 218/1/3
f 225/3/3 216/3/3 224/3/3
f 225/1/3 218/1/3 217/1/3
f 225/1/3 217/1/3 216/1/3
f 226/1/3 219/1/3 225/1/3
f 227/1/3 219/1/3 226/1/3
f 228/3/3 223/3/3 222/3/3
f 228/2/3 222/2/3 221/2/3
f 228/2/3 221/2/3 220/2/3
f 229/1/3 224/1/3 223/1/3
f 229/3/3 223/3/3 228/3/3
f 229/1/3 226/1/3 225/1/3
f 229/1/3 225/1/3 224/1/3
f 230/1/3 226/1/3 229/1/3
f 231/3/3 227/3/3 226/3/3
f 231/1/3 226/1/3 230/1/3
f 232/3/3 227/3/3 231/3/3
f 233/6/3 220/6/3 211/6/3
f 234/2/3 228/2/3 220/2/3
f 234/6/3 220/6/3 233/6/3
f 234/2/3 229/2/3 228/2/3
f 235/1/3 230/1/3 229/1/3
f 235/2/3 229/2/3 234/2/3
f 236/4/3 231/4/3 230/4/3
f 236/1/3 230/1/3 235/1/3
f 237/3/3 232/3/3 231/3/3
f 237/4/3 231/4/3 236/4/3
f 238/3/3 232/3/3 237/3/3
f 241/1/3 236/1/3 235/1/3
f 241/1/3 238/1/3 237/1/3
f 241/1/3 237/1/3 236/1/3
f 242/1/3 238/1/3 241/1/3
f 243/1/3 238/1/3 242/1/3
f 244/2/3 241/2/3 240/2/3
f 245/1/3 242/1/3 241/1/3
f 245/2/3 241/2/3 244/2/3
f 246/1/3 238/1/3 243/1/3
f 246/3/3 243/3/3 242/3/3
f 247/1/3 238/1/3 246/1/3
f 248/1/3 238/1/3 247/1/3
f 249/2/3 244/2/3 240/2/3
f 250/4/3 245/4/3 244/4/3
f 250/2/3 244/2/3 249/2/3
f 251/1/3 242/1/3 245/1/3
f 251/4/3 245/4/3 250/4/3
f 252/3/3 246/3/3 242/3/3
f 252/1/3 242/1/3 251/1/3
f 252/3/3 247/3/3 246/3/3
f 253/1/3 248/1/3 247/1/3
f 253/3/3 247/3/3 252/3/3
f 254/1/3 248/1/3 253/1/3
f 255/6/3 240/6/3 239/6/3
f 256/2/3 249/2/3 240/2/3
f 256/6/3 240/6/3 255/6/3
f 257/3/3 250/3/3 249/3/3
f 257/2/3 249/2/3 256/2/3
f 258/2/3 251/2/3 250/2/3
f 258/3/3 250/3/3 257/3/3
f 259/1/3 252/1/3 251/1/3
f 259/2/3 251/2/3 258/2/3
f 259/1/3 253/1/3 252/1/3
f 259/1/3 254/1/3 253/1/3
f 260/1/3 254/1/3 259/1/3
f 261/1/3 254/1/3 260/1/3
f 262/1/3 254/1/3 261/1/3
f 263/1/3 254/1/3 262/1/3
f 264/1/3 254/1/3 263/1/3
f 266/3/3 260/3/3 259/3/3
f 267/4/3 261/4/3 260/4/3
f 267/3/3 260/3/3 266/3/3
f 268/3/3 262/3/3 261/3/3
f 268/4/3 261/4/3 267/4/3
f 269/1/3 263/1/3 262/1/3
f 269/3/3 262/3/3 268/3/3
f 270/1/3 263/1/3 269/1/3
f 271/3/3 268/3/3 267/3/3
f 271/3/3 267/3/3 266/3/3
f 271/3/3 270/3/3 269/3/3
f 271/3/3 269/3/3 268/3/3
f 271/3/3 266/3/3 265/3/3
f 272/3/3 270/3/3 271/3/3
f 273/3/3 270/3/3 272/3/3
f 274/1/3 263/1/3 270/1/3
f 274/3/3 270/3/3 273/3/3
f 275/1/3 263/1/3 274/1/3
f 276/3/3 271/3/3 265/3/3
f 277/4/3 272/4/3 271/4/3
f 277/3/3 271/3/3 276/3/3
f 278/3/3 273/3/3 272/3/3
f 278/4/3 272/4/3 277/4/3
f 279/1/3 274/1/3 273/1/3
f 279/3/3 273/3/3 278/3/3
f 280/1/3 274/1/3 279/1/3
f 283/1/3 282/1/3 281/1/3
f 284/1/3 282/1/3 283/1/3
f 288/3/3 287/3/3 286/3/3
f 289/3/3 287/3/3 288/3/3
f 290/1/3 285/1/3 284/1/3
f 291/1/3 285/1/3 290/1/3
f 296/3/3 293/3/3 292/3/3
f 297/3/3 293/3/3 296/3/3
f 299/1/3 295/1/3 294/1/3
f 300/1/3 295/1/3 299/1/3
f 301/1/3 299/1/3 298/1/3
f 302/1/3 299/1/3 301/1/3
f 303/1/4 304/1/4 305/1/4
f 305/1/4 304/1/4 306/1/4
f 306/1/4 307/1/4 308/1/4
f 308/1/4 307/1/4 309/1/4
f 310/1/4 311/1/4 313/1/4
f 313/1/4 311/1/4 314/1/4
f 312/1/4 313/1/4 315/1/4
f 315/1/4 313/1/4 316/1/4
f 317/3/4 318/3/4 322/3/4
f 318/4/4 319/4/4 322/4/4
f 319/3/4 320/3/4 323/3/4
f 322/4/4 319/4/4 323/4/4
f 320/1/4 321/1/4 324/1/4
f 323/3/4 320/3/4 324/3/4
f 324/1/4 321/1/4 325/1/4
f 322/3/4 323/3/4 327/3/4
f 323/3/4 324/3/4 327/3/4
f 324/3/4 325/3/4 327/3/4
f 327/3/4 325/3/4 328/3/4
f 317/3/4 322/3/4 333/3/4
f 322/3/4 327/3/4 333/3/4
f 333/3/4 327/3/4 334/3/4
f 327/4/4 328/4/4 335/4/4
f 334/3/4 327/3/4 335/3/4
f 328/3/4 325/3/4 336/3/4
f 335/4/4 328/4/4 336/4/4
f 325/1/4 326/1/4 337/1/4
f 336/3/4 325/3/4 337/3/4
f 337/1/4 326/1/4 338/1/4
f 330/4/4 331/4/4 340/4/4
f 329/6/4 330/6/4 340/6/4
f 331/3/4 332/3/4 341/3/4
f 340/4/4 331/4/4 341/4/4
f 333/2/4 334/2/4 342/2/4
f 341/3/4 332/3/4 342/3/4
f 332/2/4 333/2/4 342/2/4
f 335/1/4 336/1/4 343/1/4
f 338/1/4 339/1/4 343/1/4
f 334/1/4 335/1/4 343/1/4
f 336/1/4 337/1/4 343/1/4
f 337/1/4 338/1/4 343/1/4
f 343/1/4 339/1/4 344/1/4
f 344/1/4 339/1/4 345/1/4
f 334/1/4 343/1/4 346/1/4
f 343/3/4 344/3/4 346/3/4
f 346/3/4 344/3/4 347/3/4
f 344/1/4 345/1/4 348/1/4
f 347/3/4 344/3/4 348/3/4
f 348/1/4 345/1/4 349/1/4
f 329/6/4 340/6/4 350/6/4
f 341/2/4 342/2/4 351/2/4
f 350/6/4 340/6/4 351/6/4
f 340/2/4 341/2/4 351/2/4
f 342/2/4 334/2/4 352/2/4
f 351/2/4 342/2/4 352/2/4
f 346/1/4 347/1/4 352/1/4
f 334/1/4 346/1/4 352/1/4
f 347/4/4 348/4/4 353/4/4
f 352/1/4 347/1/4 353/1/4
f 348/1/4 349/1/4 354/1/4
f 353/4/4 348/4/4 354/4/4
f 352/1/4 353/1/4 357/1/4
f 353/1/4 354/1/4 357/1/4
f 357/1/4 354/1/4 358/1/4
f 358/1/4 354/1/4 359/1/4
f 359/1/4 354/1/4 360/1/4
f 356/2/4 357/2/4 361/2/4
f 361/2/4 357/2/4 362/2/4
f 357/1/4 358/1/4 363/1/4
f 362/2/4 357/2/4 363/2/4
f 358/3/4 359/3/4 364/3/4
f 363/1/4 358/1/4 364/1/4
f 359/4/4 360/4/4 365/4/4
f 364/3/4 359/3/4 365/3/4
f 360/1/4 354/1/4 366/1/4
f 365/4/4 360/4/4 366/4/4
f 354/1/4 349/1/4 367/1/4
f 366/1/4 354/1/4 367/1/4
f 367/1/4 349/1/4 368/1/4
f 368/1/4 349/1/4 369/1/4
f 355/6/4 356/6/4 370/6/4
f 356/2/4 361/2/4 370/2/4
f 361/3/4 362/3/4 371/3/4
f 370/2/4 361/2/4 371/2/4
f 362/2/4 363/2/4 372/2/4
f 371/3/4 362/3/4 372/3/4
f 363/3/4 364/3/4 373/3/4
f 372/2/4 363/2/4 373/2/4
f 365/1/4 366/1/4 374/1/4
f 373/3/4 364/3/4 374/3/4
f 364/1/4 365/1/4 374/1/4
f 366/1/4 367/1/4 374/1/4
f 367/3/4 368/3/4 375/3/4
f 374/1/4 367/1/4 375/1/4
f 368/1/4 369/1/4 376/1/4
f 375/3/4 368/3/4 376/3/4
f 376/1/4 369/1/4 377/1/4
f 355/6/4 370/6/4 378/6/4
f 370/4/4 371/4/4 379/4/4
f 378/6/4 370/6/4 379/6/4
f 372/2/4 373/2/4 380/2/4
f 379/4/4 371/4/4 380/4/4
f 371/2/4 372/2/4 380/2/4
f 380/2/4 373/2/4 381/2/4
f 373/1/4 374/1/4 382/1/4
f 381/2/4 373/2/4 382/2/4
f 376/1/4 377/1/4 382/1/4
f 374/1/4 375/1/4 382/1/4
f 375/1/4 376/1/4 382/1/4
f 382/1/4 377/1/4 383/1/4
f 383/1/4 377/1/4 384/1/4
f 384/1/4 377/1/4 385/1/4
f 385/1/4 377/1/4 386/1/4
f 386/1/4 377/1/4 387/1/4
f 381/3/4 382/3/4 388/3/4
f 382/3/4 383/3/4 388/3/4
f 383/4/4 384/4/4 389/4/4
f 388/3/4 383/3/4 389/3/4
f 384/3/4 385/3/4 390/3/4
f 389/4/4 384/4/4 390/4/4
f 385/1/4 386/1/4 391/1/4
f 390/3/4 385/3/4 391/3/4
f 391/1/4 386/1/4 392/1/4
f 388/4/4 389/4/4 393/4/4
f 389/3/4 390/3/4 394/3/4
f 393/4/4 389/4/4 394/4/4
f 390/3/4 391/3/4 394/3/4
f 391/3/4 392/3/4 394/3/4
f 394/3/4 392/3/4 395/3/4
f 392/1/4 386/1/4 396/1/4
f 395/3/4 392/3/4 396/3/4
f 396/1/4 386/1/4 397/1/4
f 394/3/4 395/3/4 398/3/4
f 393/3/4 394/3/4 398/3/4
f 395/4/4 396/4/4 399/4/4
f 398/3/4 395/3/4 399/3/4
f 399/4/4 396/4/4 400/4/4
f 401/5/4 402/5/4 403/5/4
f 403/5/4 402/5/4 404/5/4
f 403/3/4 404/3/4 405/3/4
f 404/5/4 402/5/4 406/5/4
f 405/3/4 404/3/4 406/3/4
f 405/5/4 406/5/4 407/5/4
f 406/5/4 402/5/4 408/5/4
f 407/5/4 406/5/4 408/5/4
f 413/6/5 410/6/5 409/6/5
f 414/6/5 410/6/5 413/6/5
f 415/6/5 412/6/5 411/6/5
f 416/6/5 412/6/5 415/6/5
f 421/3/5 418/3/5 417/3/5
f 424/3/5 420/3/5 419/3/5
f 425/3/5 420/3/5 424/3/5
f 426/3/5 420/3/5 425/3/5
f 427/3/5 424/3/5 423/3/5
f 427/3/5 425/3/5 424/3/5
f 428/4/5 426/4/5 425/4/5
f 428/3/5 425/3/5 427/3/5
f 429/4/5 426/4/5 428/4/5
f 430/3/5 422/3/5 421/3/5
f 430/3/5 421/3/5 417/3/5
f 431/3/5 422/3/5 430/3/5
f 432/3/5 427/3/5 423/3/5
f 433/4/5 428/4/5 427/4/5
f 433/3/5 427/3/5 432/3/5
f 434/3/5 429/3/5 428/3/5
f 434/4/5 428/4/5 433/4/5
f 435/3/5 429/3/5 434/3/5
f 442/3/5 437/3/5 436/3/5
f 443/3/5 437/3/5 442/3/5
f 444/3/5 441/3/5 440/3/5
f 445/3/5 441/3/5 444/3/5
f 446/1/5 439/1/5 438/1/5
f 447/1/5 439/1/5 446/1/5
f 452/3/5 449/3/5 448/3/5
f 453/4/5 450/4/5 449/4/5
f 453/3/5 449/3/5 452/3/5
f 454/4/5 450/4/5 453/4/5
f 455/3/5 451/3/5 450/3/5
f 455/4/5 450/4/5 454/4/5
f 456/3/5 451/3/5 455/3/5
f 461/5/5 458/5/5 457/5/5
f 462/3/5 459/3/5 458/3/5
f 462/5/5 458/5/5 461/5/5
f 463/5/5 460/5/5 459/5/5
f 463/3/5 459/3/5 462/3/5
f 464/5/5 460/5/5 463/5/5
f 465/6/6 466/6/6 469/6/6
f 469/6/6 466/6/6 470/6/6
f 467/6/6 468/6/6 471/6/6
f 471/6/6 468/6/6 472/6/6
f 473/3/6 474/3/6 477/3/6
f 477/3/6 474/3/6 478/3/6
f 475/1/6 476/1/6 479/1/6
f 479/1/6 476/1/6 480/1/6
f 481/1/6 482/1/6 485/1/6
f 485/1/6 482/1/6 486/1/6
f 483/4/6 484/4/6 487/4/6
f 487/4/6 484/4/6 488/4/6
f 489/1/6 490/1/6 494/1/6
f 494/1/6 490/1/6 495/1/6
f 491/1/6 492/1/6 496/1/6
f 496/1/6 492/1/6 497/1/6
f 493/1/6 494/1/6 499/1/6
f 499/1/6 494/1/6 500/1/6
f 497/1/6 498/1/6 503/1/6
f 503/1/6 498/1/6 504/1/6
f 500/1/6 501/1/6 505/1/6
f 505/1/6 501/1/6 506/1/6
f 502/1/6 503/1/6 507/1/6
f 507/1/6 503/1/6 508/1/6
f 509/1/6 510/1/6 514/1/6
f 511/1/6 512/1/6 515/1/6
f 515/1/6 512/1/6 516/1/6
f 513/1/6 514/1/6 518/1/6
f 514/1/6 510/1/6 519/1/6
f 518/1/6 514/1/6 519/1/6
f 519/1/6 510/1/6 520/1/6
f 516/1/6 517/1/6 521/1/6
f 515/1/6 516/1/6 521/1/6
f 521/1/6 517/1/6 522/1/6
f 519/1/6 520/1/6 523/1/6
f 523/1/6 520/1/6 524/1/6
f 515/1/6 521/1/6 525/1/6
f 525/1/6 521/1/6 526/1/6
f 527/5/6 528/5/6 529/5/6
f 529/5/6 528/5/6 530/5/6
